<svg version="1.1" viewBox="0 0 653 98" xmlns="http://www.w3.org/2000/svg" xmlns:xlink="http://www.w3.org/1999/xlink" width="653"  height="98" >
							    <g stroke="none" stroke-width="1" fill="none" fill-rule="evenodd">
						        <g fill="#FFFFFF" fill-rule="nonzero">
					            <path d="M180.3,68.2 C179.7,68.2 179.2,68.3 178.7,68.6 C178.2,68.9 177.8,69.3 177.5,69.8 C177.2,70.3 177.1,70.8 177.1,71.4 C177.1,72 177.2,72.5 177.5,73 C177.8,73.5 178.2,73.9 178.7,74.2 C179.2,74.5 179.7,74.7 180.3,74.7 C181.2,74.7 181.9,74.4 182.5,73.8 C183.1,73.2 183.4,72.4 183.4,71.5 C183.4,70.6 183.1,69.8 182.5,69.2 C181.9,68.5 181.2,68.2 180.3,68.2 Z M198.8,12.4 L198.8,85.7 C198.8,92 193.7,97.2 187.3,97.2 L11.8,97.2 C5.5,97.2 0.3,92.1 0.3,85.7 L0.3,12.4 C0.3,6.1 5.4,0.9 11.8,0.9 L187.3,0.9 C193.6,0.9 198.8,6 198.8,12.4 Z M128.6,49 L99.5,32.2 L99.5,49 L70.4,32.2 L70.4,65.7 L99.5,48.9 L99.5,65.7 L128.6,49 Z M172.9,66.2 C172.9,66.1 172.8,65.9 172.7,65.8 C172.6,65.7 172.5,65.6 172.3,65.6 L163.8,65.6 C163.5,65.6 163.2,65.7 163,65.9 C162.8,66.1 162.7,66.4 162.7,66.7 L162.7,83 C162.7,83.2 162.8,83.3 162.9,83.4 C163,83.5 163.1,83.5 163.3,83.5 L165.3,83.5 C165.4,83.5 165.6,83.4 165.7,83.4 C165.8,83.3 165.8,83.2 165.8,83 L165.8,76.1 L170.7,76.1 C170.8,76.1 171,76 171.1,75.9 C171.2,75.8 171.2,75.7 171.2,75.5 L171.2,73.7 C171.2,73.5 171.1,73.4 171.1,73.3 C171,73.2 170.9,73.2 170.7,73.2 L165.8,73.2 L165.8,68.5 L172.4,68.5 C172.6,68.5 172.7,68.4 172.8,68.4 C172.9,68.3 173,68.2 173,68 L173,66.2 L172.9,66.2 Z M186.4,71.4 C186.4,70.3 186.1,69.3 185.6,68.3 C185.1,67.4 184.3,66.6 183.4,66.1 C182.5,65.6 181.4,65.3 180.3,65.3 C179.2,65.3 178.2,65.6 177.2,66.1 C176.3,66.7 175.5,67.4 175,68.3 C174.4,69.2 174.2,70.3 174.2,71.4 C174.2,72.5 174.5,73.5 175,74.5 C175.5,75.4 176.2,76.2 177.1,76.7 C178,77.2 179,77.5 180.1,77.5 C180.6,77.5 181.2,77.4 181.7,77.2 C182.3,77 182.8,76.7 183.2,76.4 C182.9,77.8 182.3,78.8 181.2,79.6 C180.2,80.3 178.9,80.7 177.6,80.7 L177,80.7 C176.9,80.7 176.7,80.8 176.6,80.9 C176.5,81 176.5,81.1 176.5,81.3 L176.5,83.1 C176.5,83.3 176.5,83.4 176.6,83.5 C176.7,83.6 176.8,83.6 177,83.6 L177.6,83.6 C179.4,83.6 181,83.1 182.4,82.1 C183.8,81.1 184.9,79.8 185.5,78.2 C185.8,77.3 186.1,76.3 186.2,75.2 C186.4,74.1 186.4,72.9 186.4,71.4 Z" fill="#FFFFFF"></path>
					            <g transform="translate(227.000000, 24.000000)" fill="#FFFFFF">
				                <polygon points="26.6 48.8 14.4 48.8 14.4 10.8 0.2 10.8 0.2 1.3 40.9 1.3 40.9 10.8 26.7 10.8 26.7 48.8" fill="#FFFFFF"></polygon>
				                <polygon points="85.8 48.8 48.2 48.8 48.2 1.4 85.8 1.4 85.8 10.9 60.4 10.9 60.4 20 80.4 20 80.4 29.5 60.4 29.5 60.4 39.3 85.8 39.3" fill="#FFFFFF"></polygon>
				                <path d="M130.7,48.1 C120.6,49 112.3,49.5 105.6,49.5 C101.2,49.5 97.9,48.5 95.8,46.4 C93.7,44.3 92.7,41.1 92.7,36.6 L92.7,14.9 C92.7,10.2 93.8,6.7 95.9,4.6 C98,2.5 101.5,1.4 106.2,1.4 L130.6,1.4 L130.6,10.9 L108.9,10.9 C106.2,10.9 104.8,12.3 104.8,15 L104.8,36.7 C104.8,37.7 105.1,38.6 105.7,39.2 C106.3,39.8 107.1,40.1 108,40.1 C108.9,40.1 110,40.1 111.1,40.1 C112.2,40.1 113.4,40 114.6,40 C115.8,40 117.1,39.9 118.3,39.9 C119.5,39.9 121.1,39.8 123.1,39.6 C125.1,39.5 127.5,39.3 130.5,39.1 L130.5,48.1 L130.7,48.1 Z" fill="#FFFFFF"></path>
				                <polygon points="179.7 48.8 167.5 48.8 167.5 29.5 150.6 29.5 150.6 48.8 138.4 48.8 138.4 1.4 150.6 1.4 150.6 20 167.5 20 167.5 1.4 179.7 1.4" fill="#FFFFFF"></polygon>
				                <path d="M199.7,48.8 L186.5,48.8 L204.5,1.4 L218,1.4 L236,48.8 L222.8,48.8 L219.8,40.3 L202.9,40.3 L199.7,48.8 Z M205.8,31.5 L216.6,31.5 L211.2,15.6 L205.8,31.5 Z" id="Shape" fill="#FFFFFF"></path>
				                <polygon points="260 48.8 247.8 48.8 247.8 10.8 233.6 10.8 233.6 1.3 274.3 1.3 274.3 10.8 260 10.8" fill="#FFFFFF"></polygon>
				                <polygon points="322.9 48.8 310.7 48.8 310.7 29.5 293.8 29.5 293.8 48.8 281.6 48.8 281.6 1.4 293.8 1.4 293.8 20 310.7 20 310.7 1.4 322.9 1.4" fill="#FFFFFF"></polygon>
				                <path d="M375.3,35.9 C375.3,40.6 374.2,44.1 372.1,46.2 C370,48.3 366.5,49.4 361.8,49.4 L344.9,49.4 C340.2,49.4 336.7,48.3 334.6,46.2 C332.5,44.1 331.4,40.6 331.4,35.9 L331.4,14.2 C331.4,9.5 332.5,6 334.6,3.9 C336.7,1.8 340.2,0.7 344.9,0.7 L361.8,0.7 C366.5,0.7 370,1.8 372.1,3.9 C374.2,6 375.3,9.5 375.3,14.2 L375.3,35.9 Z M363.2,14.2 C363.2,11.5 361.8,10.1 359.1,10.1 L347.6,10.1 C344.9,10.1 343.5,11.5 343.5,14.2 L343.5,35.9 C343.5,38.6 344.9,40 347.6,40 L359.1,40 C361.8,40 363.2,38.6 363.2,35.9 L363.2,14.2 Z" fill="#FFFFFF"></path>
				                <polygon points="425.1 48.8 412.2 48.8 396 20.3 396 48.8 383.8 48.8 383.8 1.4 396.7 1.4 413 29.9 413 1.4 425.2 1.4 425.2 48.8" fill="#FFFFFF"></polygon>
					            </g>
						        </g>
							    </g>
								</svg>